<?xml version="1.0" encoding="utf-8"?>
<!-- Generator: Adobe Illustrator 16.0.0, SVG Export Plug-In . SVG Version: 6.00 Build 0)  -->
<!DOCTYPE svg PUBLIC "-//W3C//DTD SVG 1.1//EN" "http://www.w3.org/Graphics/SVG/1.1/DTD/svg11.dtd">
<svg version="1.1" id="Layer_1" xmlns="http://www.w3.org/2000/svg" xmlns:xlink="http://www.w3.org/1999/xlink" x="0px" y="0px"
	 width="136.715px" height="46.788px" viewBox="0 0 136.715 46.788" enable-background="new 0 0 136.715 46.788"
	 xml:space="preserve">
<text transform="matrix(1 0 0 1 -255.8486 -43.0425)" font-family="'Montserrat-Regular'" font-size="55">&lt;op\&gt;</text>
<text transform="matrix(1 0 0 1 -31.834 -80.0483)"><tspan x="0" y="0" font-family="'Montserrat-Thin'" font-size="55" letter-spacing="4">&lt;</tspan><tspan x="35.199" y="0" font-family="'Montserrat-Bold'" font-size="55" letter-spacing="-11">o</tspan><tspan x="60.225" y="0" font-family="'Montserrat-Bold'" font-size="55" letter-spacing="2">p</tspan><tspan x="100.374" y="0" font-family="'Montserrat-Thin'" font-size="55" letter-spacing="-2">\</tspan><tspan x="114.674" y="0" font-family="'Montserrat-Thin'" font-size="55">&gt;</tspan></text>
<text transform="matrix(1 0 0 1 -241.8345 36.1177)"><tspan x="0" y="0" font-family="'Montserrat-Thin'" font-size="55" letter-spacing="1">&lt;</tspan><tspan x="31.9" y="0" font-family="'Montserrat-Thin'" font-size="55" letter-spacing="2">/</tspan><tspan x="50.599" y="0" font-family="'Montserrat-Bold'" font-size="55" letter-spacing="-4">o</tspan><tspan x="82.224" y="0" font-family="'Montserrat-Bold'" font-size="55" letter-spacing="3">p</tspan><tspan x="123.473" y="0" font-family="'Montserrat-Thin'" font-size="55">&gt;</tspan></text>
<path fill="#FFFFFF" d="M22.174,7.712L1.243,21.194l20.931,13.483v1.854L0,22.122v-1.854l22.174-14.41V7.712z"/>
<path fill="#FFFFFF" d="M114.541,5.858l22.174,14.41v1.854l-22.174,14.409v-1.854l20.931-13.483L114.541,7.712V5.858z"/>
<path fill="#FFFFFF" d="M46.925,0h1.499L23.673,42.646h-1.499L46.925,0z"/>
<path fill="#FFFFFF" d="M56.392,34.605c-2.475-1.301-4.408-3.107-5.802-5.417s-2.091-4.931-2.091-7.865
	c0-2.933,0.697-5.555,2.091-7.865s3.327-4.115,5.802-5.417c2.476-1.301,5.271-1.952,8.389-1.952c3.115,0,5.902,0.651,8.359,1.952
	c2.456,1.302,4.381,3.107,5.775,5.417c1.393,2.31,2.09,4.932,2.09,7.865c0,2.934-0.697,5.555-2.09,7.865
	c-1.395,2.31-3.319,4.117-5.775,5.417c-2.457,1.302-5.244,1.953-8.359,1.953C61.663,36.558,58.867,35.907,56.392,34.605z
	 M70.197,27.29c1.411-1.485,2.118-3.474,2.118-5.967c0-2.493-0.707-4.482-2.118-5.968c-1.412-1.485-3.218-2.228-5.417-2.228
	c-2.201,0-4.016,0.743-5.445,2.228c-1.43,1.485-2.145,3.475-2.145,5.968c0,2.494,0.715,4.482,2.145,5.967
	c1.43,1.485,3.244,2.228,5.445,2.228C66.979,29.518,68.785,28.775,70.197,27.29z"/>
<path fill="#FFFFFF" d="M107.322,7.985c2.255,1.265,4.023,3.044,5.308,5.335c1.283,2.292,1.925,4.959,1.925,8.002
	c0,3.044-0.642,5.711-1.925,8.002c-1.284,2.292-3.053,4.07-5.308,5.335s-4.757,1.897-7.507,1.897c-3.777,0-6.748-1.191-8.91-3.575
	v13.805h-8.58V6.528h8.194v3.41c2.126-2.566,5.226-3.85,9.296-3.85C102.565,6.088,105.067,6.72,107.322,7.985z M103.747,27.29
	c1.411-1.485,2.117-3.474,2.117-5.967c0-2.493-0.706-4.482-2.117-5.968c-1.412-1.485-3.217-2.228-5.418-2.228
	c-2.199,0-4.006,0.743-5.417,2.228c-1.411,1.485-2.117,3.475-2.117,5.968c0,2.494,0.706,4.482,2.117,5.967
	c1.411,1.485,3.218,2.228,5.417,2.228C100.53,29.518,102.335,28.775,103.747,27.29z"/>
<path d="M-186.159,87.954l-21.285,17.666l21.285,17.665v2.429l-22.55-18.88v-2.429l22.55-18.88V87.954z"/>
<path d="M-167.982,113.272c-2.475-1.301-4.409-3.107-5.802-5.417c-1.394-2.31-2.09-4.931-2.09-7.865c0-2.933,0.696-5.555,2.09-7.865
	c1.393-2.31,3.328-4.115,5.802-5.417c2.475-1.301,5.271-1.952,8.388-1.952c3.116,0,5.903,0.651,8.36,1.952
	c2.456,1.302,4.381,3.107,5.775,5.417c1.393,2.31,2.09,4.932,2.09,7.865c0,2.934-0.697,5.555-2.09,7.865
	c-1.394,2.31-3.319,4.117-5.775,5.417c-2.457,1.302-5.244,1.953-8.36,1.953C-162.711,115.225-165.507,114.574-167.982,113.272z
	 M-154.177,105.957c1.411-1.485,2.118-3.474,2.118-5.967c0-2.493-0.707-4.482-2.118-5.968c-1.412-1.485-3.217-2.228-5.417-2.228
	s-4.015,0.743-5.445,2.228c-1.43,1.485-2.145,3.475-2.145,5.968c0,2.494,0.715,4.482,2.145,5.967
	c1.43,1.485,3.245,2.228,5.445,2.228S-155.589,107.442-154.177,105.957z"/>
<path d="M-117.052,86.652c2.255,1.265,4.023,3.044,5.308,5.335c1.283,2.292,1.925,4.959,1.925,8.002
	c0,3.044-0.642,5.711-1.925,8.002c-1.284,2.292-3.053,4.07-5.308,5.335s-4.757,1.897-7.507,1.897c-3.777,0-6.748-1.191-8.91-3.575
	v13.805h-8.581v-40.26h8.195v3.41c2.126-2.566,5.226-3.85,9.296-3.85C-121.809,84.755-119.307,85.387-117.052,86.652z
	 M-120.627,105.957c1.411-1.485,2.117-3.474,2.117-5.967c0-2.493-0.706-4.482-2.117-5.968c-1.412-1.485-3.217-2.228-5.418-2.228
	c-2.199,0-4.006,0.743-5.417,2.228c-1.411,1.485-2.117,3.475-2.117,5.968c0,2.494,0.706,4.482,2.117,5.967
	c1.411,1.485,3.218,2.228,5.417,2.228C-123.844,108.185-122.039,107.442-120.627,105.957z"/>
<path d="M-76.317,125.455l-30.093-40.673h1.825l30.091,40.673H-76.317z"/>
<path d="M-48.086,104.292v2.414l-22.55,18.767v-2.415l21.285-17.56l-21.285-17.56v-2.415L-48.086,104.292z"/>
</svg>
